<?xml version="1.0" encoding="utf-8"?>
<!-- Generator: Adobe Illustrator 21.0.0, SVG Export Plug-In . SVG Version: 6.00 Build 0)  -->
<svg version="1.1" id="emoji-1f600" xmlns="http://www.w3.org/2000/svg" xmlns:xlink="http://www.w3.org/1999/xlink" x="0px"
	 y="0px" viewBox="0 0 1024 1024" style="enable-background:new 0 0 1024 1024;" xml:space="preserve">
<style type="text/css">
	.st0{fill:#FDCA47;}
	.st1{fill:#F9B700;}
	.st2{fill:#FFE8BB;}
	.st3{fill:#302C3B;}
	.st4{fill:#1A1626;}
	.st5{fill:#F46C60;}
	.st6{fill:#FFFFFF;}
</style>
<title>1f600</title>
<g>
	<circle class="st0" cx="512" cy="512" r="409.6"/>
	<path class="st1" d="M780.3,202.7c64.8,74.4,100.4,169.7,100.3,268.3c0,226.2-183.4,409.6-409.6,409.6
		c-98.6,0.1-194-35.5-268.3-100.3c75.1,86.5,185.8,141.3,309.3,141.3c226.2,0,409.6-183.4,409.6-409.6
		C921.6,388.5,866.8,277.8,780.3,202.7L780.3,202.7z"/>
	<path class="st2" d="M162.7,355c-15.2,51.1,89.9-129.7,253.7-196.8C496.1,125.5,227.6,137.7,162.7,355L162.7,355z"/>
	<circle class="st3" cx="355" cy="409.6" r="68.3"/>
	<circle class="st3" cx="669" cy="409.6" r="68.3"/>
	<path class="st3" d="M771.4,591c0-12.2-7.2-27.4-27.8-31.4c-52.9-10-130.9-20.4-231.6-20.4h0c-100.6,0-178.7,10.3-231.6,20.4
		c-20.6,3.9-27.8,19.2-27.8,31.4c0,110.3,85.6,221.3,259.4,221.3h0C685.8,812.4,771.4,701.3,771.4,591z"/>
	<path class="st4" d="M537.2,648.5c-7.9-0.2-20.1,6.2-15.6,23c2.2,8.5,16.3,18.8,16.3,32.5c0,27.9-51.7,27.9-51.7,0
		c0-13.7,14-24,16.3-32.5c4.5-16.8-7.7-23.2-15.6-23c-21.5,0.5-56.7,20.5-56.7,54.2c0,37.9,36.7,68.7,81.9,68.7
		c45.2,0,81.9-30.7,81.9-68.7C593.9,669,558.6,649,537.2,648.5z"/>
	<path class="st5" d="M402.8,758.9c31.6,14.3,68,22.8,109.2,22.8s77.7-8.4,109.2-22.8c-30.4-15.6-66.7-25-109.2-25
		C469.5,733.9,433.2,743.3,402.8,758.9z"/>
	<path class="st6" d="M710,594.4c-34.2-5.1-106.7-14.2-198.1-14.2c-91.3,0-163.7,9-198,14.2c-20.2,3-21.4,10.4-20,20.8
		c0.8,6.2,2.1,13.7,4.1,21.7c2.2,8.9,4,11.3,19.8,11.4c30.3,0.4,358,0.4,388.4,0c15.8-0.2,17.5-2.5,19.7-11.4c2-8,3.3-15.5,4.1-21.7
		C731.5,604.8,730.2,597.4,710,594.4L710,594.4z"/>
</g>
</svg>
